
<svg width="4085" height="4085" viewBox="0 0 4085 4085" fill="none" xmlns="http://www.w3.org/2000/svg">
<rect width="4085" height="4085" fill="#f5f5f5"/>
<path d="M1880 1998.75C1880 1956.04 1880 1934.68 1888.44 1918.43C1895.56 1904.73 1906.73 1893.56 1920.43 1886.44C1936.68 1878 1958.04 1878 2000.75 1878H2084.25C2126.96 1878 2148.32 1878 2164.57 1886.44C2178.27 1893.56 2189.44 1904.73 2196.56 1918.43C2205 1934.68 2205 1956.04 2205 1998.75V2082.25C2205 2124.96 2205 2146.32 2196.56 2162.57C2189.44 2176.27 2178.27 2187.44 2164.57 2194.56C2148.32 2203 2126.96 2203 2084.25 2203H2000.75C1958.04 2203 1936.68 2203 1920.43 2194.56C1906.73 2187.44 1895.56 2176.27 1888.44 2162.57C1880 2146.32 1880 2124.96 1880 2082.25V1998.75Z" fill="#010101"/>
<path d="M2081.13 1990.18L2042.39 2028.92L2003.11 1990.18L2042.39 1950.9L2081.13 1990.18ZM2131.02 2040.06L2092.28 2079.34L2053.53 2040.06L2092.28 2001.32L2131.02 2040.06ZM2031.24 2040.06L1991.97 2079.34L1952.69 2040.06L1991.97 2001.32L2031.24 2040.06ZM2081.13 2090.49L2042.39 2129.23L2003.11 2090.49L2042.39 2051.21L2081.13 2090.49Z" fill="white"/>
</svg>
