<svg width="251" height="28" viewBox="0 0 251 28" fill="none" xmlns="http://www.w3.org/2000/svg">
<path d="M7.01496 6.53395V7.63147H0.258631V6.53395H7.01496ZM2.5443 2.82854H3.76266V18.3449C3.76266 18.9759 3.88349 19.4928 4.12514 19.8956C4.37351 20.2916 4.69572 20.587 5.09177 20.7816C5.49453 20.9696 5.92415 21.0636 6.38061 21.0636C6.60213 21.0636 6.79344 21.0468 6.95455 21.0132C7.12236 20.9797 7.28011 20.936 7.42779 20.8823L7.72986 22C7.54191 22.0671 7.33381 22.1242 7.10558 22.1712C6.87735 22.2249 6.60884 22.2517 6.30006 22.2517C5.65564 22.2517 5.04478 22.1074 4.46749 21.8188C3.89691 21.5301 3.43374 21.1106 3.07796 20.5601C2.72219 20.0097 2.5443 19.3451 2.5443 18.5665V2.82854ZM12.5648 11.9712V22H11.3364V1.37859H12.5648V8.98072H12.6856C13.0481 8.1752 13.6254 7.53414 14.4175 7.05754C15.2163 6.57422 16.1729 6.33257 17.2872 6.33257C18.3277 6.33257 19.244 6.55408 20.036 6.99712C20.8281 7.43345 21.4457 8.06108 21.8888 8.88003C22.3385 9.69227 22.5634 10.6656 22.5634 11.8001V22H21.345V11.8504C21.345 10.528 20.9523 9.46739 20.1669 8.66858C19.3816 7.86977 18.3444 7.47037 17.0556 7.47037C16.1897 7.47037 15.4177 7.65832 14.7397 8.03423C14.0617 8.41015 13.5281 8.93709 13.1388 9.61507C12.7561 10.2863 12.5648 11.0717 12.5648 11.9712ZM33.11 22.3222C31.7138 22.3222 30.4988 21.9765 29.465 21.2851C28.4312 20.5937 27.6324 19.6472 27.0686 18.4456C26.5047 17.2441 26.2228 15.8747 26.2228 14.3375C26.2228 12.7935 26.5047 11.4174 27.0686 10.2091C27.6392 9.00086 28.4212 8.04766 29.4147 7.34954C30.4081 6.65142 31.5426 6.30236 32.818 6.30236C33.6839 6.30236 34.5029 6.47689 35.2748 6.82595C36.0535 7.1683 36.7382 7.66504 37.3289 8.31617C37.9264 8.9673 38.3929 9.75268 38.7285 10.6723C39.0709 11.592 39.242 12.6257 39.242 13.7736V14.5388H26.9981V13.4212H38.0136C38.0136 12.3002 37.7854 11.2899 37.3289 10.3904C36.8725 9.49089 36.2515 8.77599 35.4662 8.24568C34.6808 7.71538 33.798 7.45023 32.818 7.45023C31.791 7.45023 30.8747 7.73887 30.0691 8.31617C29.2703 8.88675 28.636 9.65871 28.1661 10.632C27.7029 11.6054 27.4613 12.6928 27.4411 13.8944V14.3979C27.4411 15.6867 27.666 16.8446 28.1158 17.8717C28.5722 18.892 29.2233 19.7009 30.0691 20.2983C30.9149 20.889 31.9286 21.1844 33.11 21.1844C33.9558 21.1844 34.6774 21.0434 35.2748 20.7615C35.879 20.4729 36.3724 20.1238 36.755 19.7143C37.1376 19.3049 37.4263 18.9088 37.6209 18.5262L38.7386 18.9793C38.5037 19.4962 38.1378 20.013 37.6411 20.5299C37.151 21.0401 36.5268 21.4663 35.7682 21.8087C35.0164 22.151 34.1303 22.3222 33.11 22.3222ZM52.7986 12.817V22H49.788V6.53395H52.6778V9.05121H52.8691C53.2249 8.23226 53.782 7.57441 54.5406 7.07767C55.3058 6.58094 56.2691 6.33257 57.4304 6.33257C58.4843 6.33257 59.4073 6.55408 60.1994 6.99712C60.9915 7.43345 61.6057 8.08458 62.042 8.95052C62.4783 9.81646 62.6965 10.8871 62.6965 12.1625V22H59.6858V12.525C59.6858 11.404 59.3938 10.528 58.8098 9.89701C58.2258 9.2593 57.4237 8.94045 56.4033 8.94045C55.7052 8.94045 55.0843 9.09148 54.5406 9.39356C54.0035 9.69563 53.5773 10.1387 53.2618 10.7227C52.953 11.3 52.7986 11.9981 52.7986 12.817ZM72.6817 22.3121C71.2318 22.3121 69.9665 21.9799 68.8857 21.3153C67.805 20.6507 66.9659 19.721 66.3685 18.5262C65.771 17.3313 65.4723 15.9351 65.4723 14.3375C65.4723 12.7331 65.771 11.3302 66.3685 10.1286C66.9659 8.92702 67.805 7.99396 68.8857 7.3294C69.9665 6.66484 71.2318 6.33257 72.6817 6.33257C74.1317 6.33257 75.397 6.66484 76.4778 7.3294C77.5585 7.99396 78.3976 8.92702 78.995 10.1286C79.5925 11.3302 79.8912 12.7331 79.8912 14.3375C79.8912 15.9351 79.5925 17.3313 78.995 18.5262C78.3976 19.721 77.5585 20.6507 76.4778 21.3153C75.397 21.9799 74.1317 22.3121 72.6817 22.3121ZM72.6918 19.7848C73.6316 19.7848 74.4103 19.5364 75.0278 19.0397C75.6454 18.543 76.1019 17.8818 76.3972 17.0561C76.6993 16.2304 76.8503 15.3209 76.8503 14.3274C76.8503 13.3406 76.6993 12.4344 76.3972 11.6087C76.1019 10.7764 75.6454 10.1085 75.0278 9.605C74.4103 9.10155 73.6316 8.84983 72.6918 8.84983C71.7453 8.84983 70.9599 9.10155 70.3357 9.605C69.7181 10.1085 69.2583 10.7764 68.9562 11.6087C68.6608 12.4344 68.5132 13.3406 68.5132 14.3274C68.5132 15.3209 68.6608 16.2304 68.9562 17.0561C69.2583 17.8818 69.7181 18.543 70.3357 19.0397C70.9599 19.5364 71.7453 19.7848 72.6918 19.7848ZM85.6953 12.817V22H82.6846V6.53395H85.5745V9.05121H85.7658C86.1215 8.23226 86.6787 7.57441 87.4372 7.07767C88.2025 6.58094 89.1658 6.33257 90.3271 6.33257C91.3809 6.33257 92.3039 6.55408 93.096 6.99712C93.8881 7.43345 94.5023 8.08458 94.9387 8.95052C95.375 9.81646 95.5932 10.8871 95.5932 12.1625V22H92.5825V12.525C92.5825 11.404 92.2905 10.528 91.7065 9.89701C91.1225 9.2593 90.3203 8.94045 89.3 8.94045C88.6019 8.94045 87.981 9.09148 87.4372 9.39356C86.9002 9.69563 86.474 10.1387 86.1585 10.7227C85.8497 11.3 85.6953 11.9981 85.6953 12.817ZM99.0638 27.7998V6.53395H102.004V9.04114H102.256C102.43 8.71893 102.682 8.34637 103.011 7.92347C103.34 7.50057 103.796 7.13138 104.38 6.81588C104.964 6.49367 105.736 6.33257 106.696 6.33257C107.945 6.33257 109.059 6.64806 110.039 7.27906C111.019 7.91005 111.788 8.81962 112.345 10.0078C112.909 11.1959 113.191 12.6257 113.191 14.2972C113.191 15.9686 112.912 17.4018 112.355 18.5967C111.798 19.7848 111.032 20.7011 110.059 21.3455C109.086 21.9832 107.975 22.3021 106.726 22.3021C105.787 22.3021 105.018 22.1443 104.42 21.8288C103.83 21.5133 103.367 21.1441 103.031 20.7212C102.695 20.2983 102.437 19.9224 102.256 19.5935H102.074V27.7998H99.0638ZM102.014 14.267C102.014 15.3544 102.172 16.3076 102.487 17.1266C102.803 17.9455 103.259 18.5866 103.857 19.0498C104.454 19.5062 105.186 19.7345 106.052 19.7345C106.951 19.7345 107.703 19.4962 108.307 19.0196C108.911 18.5362 109.368 17.8818 109.677 17.0561C109.992 16.2304 110.15 15.3007 110.15 14.267C110.15 13.2466 109.995 12.3304 109.687 11.5181C109.385 10.7059 108.928 10.0648 108.317 9.59494C107.713 9.12505 106.958 8.8901 106.052 8.8901C105.179 8.8901 104.441 9.11498 103.836 9.56473C103.239 10.0145 102.786 10.6421 102.477 11.4476C102.168 12.2532 102.014 13.1929 102.014 14.267ZM115.997 22V6.53395H118.907V8.99079H119.068C119.35 8.15842 119.846 7.50393 120.558 7.02733C121.276 6.54401 122.088 6.30236 122.995 6.30236C123.183 6.30236 123.404 6.30907 123.659 6.3225C123.921 6.33592 124.126 6.3527 124.273 6.37284V9.25259C124.153 9.21903 123.938 9.18211 123.629 9.14183C123.32 9.09484 123.011 9.07135 122.703 9.07135C121.991 9.07135 121.357 9.22238 120.8 9.52445C120.249 9.81981 119.813 10.2326 119.491 10.7629C119.168 11.2865 119.007 11.884 119.007 12.5552V22H115.997ZM132.273 22.3121C130.823 22.3121 129.557 21.9799 128.477 21.3153C127.396 20.6507 126.557 19.721 125.959 18.5262C125.362 17.3313 125.063 15.9351 125.063 14.3375C125.063 12.7331 125.362 11.3302 125.959 10.1286C126.557 8.92702 127.396 7.99396 128.477 7.3294C129.557 6.66484 130.823 6.33257 132.273 6.33257C133.723 6.33257 134.988 6.66484 136.069 7.3294C137.149 7.99396 137.988 8.92702 138.586 10.1286C139.183 11.3302 139.482 12.7331 139.482 14.3375C139.482 15.9351 139.183 17.3313 138.586 18.5262C137.988 19.721 137.149 20.6507 136.069 21.3153C134.988 21.9799 133.723 22.3121 132.273 22.3121ZM132.283 19.7848C133.222 19.7848 134.001 19.5364 134.619 19.0397C135.236 18.543 135.693 17.8818 135.988 17.0561C136.29 16.2304 136.441 15.3209 136.441 14.3274C136.441 13.3406 136.29 12.4344 135.988 11.6087C135.693 10.7764 135.236 10.1085 134.619 9.605C134.001 9.10155 133.222 8.84983 132.283 8.84983C131.336 8.84983 130.551 9.10155 129.926 9.605C129.309 10.1085 128.849 10.7764 128.547 11.6087C128.252 12.4344 128.104 13.3406 128.104 14.3274C128.104 15.3209 128.252 16.2304 128.547 17.0561C128.849 17.8818 129.309 18.543 129.926 19.0397C130.551 19.5364 131.336 19.7848 132.283 19.7848ZM149.636 6.53395V8.95052H140.896V6.53395H149.636ZM143.292 22V4.74166C143.292 3.77503 143.504 2.97286 143.927 2.33515C144.35 1.69074 144.91 1.21078 145.608 0.895281C146.306 0.573071 147.065 0.411966 147.884 0.411966C148.488 0.411966 149.005 0.462311 149.435 0.563003C149.864 0.65698 150.183 0.744245 150.391 0.824797L149.686 3.26151C149.545 3.22123 149.364 3.17424 149.143 3.12054C148.921 3.06013 148.653 3.02992 148.337 3.02992C147.605 3.02992 147.082 3.21116 146.766 3.57365C146.457 3.93613 146.303 4.45972 146.303 5.14442V22H143.292ZM152.175 22V6.53395H155.186V22H152.175ZM153.696 4.14758C153.172 4.14758 152.722 3.97305 152.346 3.62399C151.977 3.26822 151.793 2.84532 151.793 2.35529C151.793 1.85855 151.977 1.43565 152.346 1.08659C152.722 0.73082 153.172 0.552933 153.696 0.552933C154.219 0.552933 154.666 0.73082 155.035 1.08659C155.411 1.43565 155.599 1.85855 155.599 2.35529C155.599 2.84532 155.411 3.26822 155.035 3.62399C154.666 3.97305 154.219 4.14758 153.696 4.14758ZM165.888 6.53395V8.95052H157.441V6.53395H165.888ZM159.706 2.82854H162.717V17.4589C162.717 18.0429 162.804 18.4825 162.979 18.7779C163.153 19.0666 163.378 19.2646 163.653 19.372C163.935 19.4727 164.241 19.523 164.569 19.523C164.811 19.523 165.023 19.5062 165.204 19.4727C165.385 19.4391 165.526 19.4123 165.627 19.3921L166.17 21.8792C165.996 21.9463 165.748 22.0134 165.425 22.0806C165.103 22.1544 164.7 22.1947 164.217 22.2014C163.425 22.2148 162.687 22.0738 162.002 21.7785C161.317 21.4831 160.763 21.0267 160.34 20.4091C159.918 19.7915 159.706 19.0162 159.706 18.0831V2.82854ZM186.41 9.8668L185.273 10.1689C185.091 9.605 184.833 9.11833 184.497 8.70886C184.162 8.29939 183.739 7.98389 183.228 7.76237C182.725 7.53414 182.121 7.42002 181.416 7.42002C180.282 7.42002 179.352 7.70196 178.627 8.26582C177.909 8.82969 177.55 9.56473 177.55 10.4709C177.55 11.2093 177.795 11.8202 178.285 12.3035C178.775 12.7801 179.523 13.1426 180.53 13.391L182.906 13.985C184.128 14.2871 185.048 14.7771 185.665 15.4551C186.283 16.1264 186.592 16.9621 186.592 17.9623C186.592 18.8148 186.36 19.57 185.897 20.2278C185.434 20.8857 184.793 21.3992 183.974 21.7684C183.161 22.1376 182.215 22.3222 181.134 22.3222C179.691 22.3222 178.506 21.9866 177.58 21.3153C176.653 20.6373 176.059 19.6673 175.798 18.4054L176.976 18.1033C177.197 19.1102 177.657 19.8788 178.355 20.4091C179.06 20.9327 179.983 21.1945 181.124 21.1945C182.386 21.1945 183.403 20.8958 184.175 20.2983C184.954 19.7009 185.343 18.9357 185.343 18.0026C185.343 17.291 185.115 16.6903 184.658 16.2002C184.202 15.7102 183.51 15.3511 182.584 15.1228L180.117 14.5187C178.855 14.2099 177.909 13.7165 177.278 13.0385C176.647 12.3539 176.331 11.5114 176.331 10.5112C176.331 9.67885 176.549 8.94716 176.986 8.31617C177.422 7.68517 178.023 7.19179 178.788 6.83602C179.553 6.48024 180.429 6.30236 181.416 6.30236C182.725 6.30236 183.792 6.61114 184.618 7.22871C185.444 7.84628 186.041 8.72564 186.41 9.8668ZM195.744 6.53395V7.63147H188.987V6.53395H195.744ZM191.273 2.82854H192.491V18.3449C192.491 18.9759 192.612 19.4928 192.854 19.8956C193.102 20.2916 193.424 20.587 193.82 20.7816C194.223 20.9696 194.653 21.0636 195.109 21.0636C195.331 21.0636 195.522 21.0468 195.683 21.0132C195.851 20.9797 196.009 20.936 196.156 20.8823L196.459 22C196.271 22.0671 196.062 22.1242 195.834 22.1712C195.606 22.2249 195.337 22.2517 195.029 22.2517C194.384 22.2517 193.773 22.1074 193.196 21.8188C192.626 21.5301 192.162 21.1106 191.807 20.5601C191.451 20.0097 191.273 19.3451 191.273 18.5665V2.82854ZM209.641 16.5124V6.53395H210.869V22H209.641V19.4928H209.54C209.178 20.2916 208.59 20.9428 207.778 21.4462C206.972 21.9497 206.019 22.2014 204.918 22.2014C203.905 22.2014 203.009 21.9799 202.23 21.5368C201.451 21.0938 200.84 20.4661 200.397 19.6539C199.954 18.835 199.733 17.8616 199.733 16.7339V6.53395H200.961V16.6835C200.961 17.9724 201.351 19.0162 202.129 19.815C202.915 20.6071 203.928 21.0032 205.17 21.0032C205.976 21.0032 206.717 20.8219 207.395 20.4594C208.073 20.097 208.617 19.5801 209.026 18.9088C209.436 18.2308 209.641 17.432 209.641 16.5124ZM220.698 22.3222C219.456 22.3222 218.372 21.9799 217.446 21.2952C216.52 20.6105 215.801 19.6673 215.291 18.4658C214.788 17.2575 214.536 15.8713 214.536 14.3072C214.536 12.7566 214.791 11.3805 215.301 10.1789C215.818 8.97066 216.54 8.02416 217.466 7.33947C218.393 6.64806 219.473 6.30236 220.708 6.30236C221.594 6.30236 222.363 6.47353 223.014 6.81588C223.672 7.15151 224.222 7.59791 224.666 8.15506C225.115 8.71222 225.458 9.32307 225.693 9.98763H225.813V1.37859H227.032V22H225.844V18.6269H225.693C225.444 19.2914 225.098 19.9056 224.655 20.4695C224.212 21.0267 223.662 21.4764 223.004 21.8188C222.346 22.1544 221.578 22.3222 220.698 22.3222ZM220.809 21.1844C221.856 21.1844 222.752 20.8857 223.498 20.2883C224.249 19.6841 224.823 18.8652 225.219 17.8314C225.622 16.7909 225.823 15.6129 225.823 14.2972C225.823 12.9815 225.622 11.8101 225.219 10.7831C224.823 9.74933 224.249 8.93709 223.498 8.34637C222.752 7.74894 221.856 7.45023 220.809 7.45023C219.748 7.45023 218.839 7.7523 218.08 8.35644C217.329 8.95387 216.751 9.76947 216.348 10.8032C215.952 11.837 215.754 13.0016 215.754 14.2972C215.754 15.5927 215.952 16.7607 216.348 17.8012C216.751 18.8417 217.329 19.6673 218.08 20.2782C218.839 20.8823 219.748 21.1844 220.809 21.1844ZM232.053 22V6.53395H233.271V22H232.053ZM232.667 3.79517C232.399 3.79517 232.164 3.70119 231.962 3.51323C231.768 3.32528 231.67 3.09705 231.67 2.82854C231.67 2.56003 231.768 2.3318 231.962 2.14384C232.157 1.95589 232.392 1.86191 232.667 1.86191C232.936 1.86191 233.167 1.95589 233.362 2.14384C233.563 2.3318 233.664 2.56003 233.664 2.82854C233.664 3.09705 233.567 3.32528 233.372 3.51323C233.177 3.70119 232.942 3.79517 232.667 3.79517ZM243.599 22.3222C242.324 22.3222 241.189 21.9799 240.196 21.2952C239.202 20.6038 238.42 19.6539 237.85 18.4456C237.279 17.2373 236.994 15.8612 236.994 14.3173C236.994 12.7667 237.279 11.3906 237.85 10.189C238.42 8.98072 239.202 8.03088 240.196 7.33947C241.189 6.64806 242.324 6.30236 243.599 6.30236C244.874 6.30236 246.009 6.64806 247.002 7.33947C247.996 8.03088 248.778 8.98072 249.348 10.189C249.919 11.3973 250.204 12.7734 250.204 14.3173C250.204 15.8612 249.919 17.2373 249.348 18.4456C248.778 19.6539 247.996 20.6038 247.002 21.2952C246.009 21.9799 244.874 22.3222 243.599 22.3222ZM243.599 21.1844C244.68 21.1844 245.623 20.879 246.428 20.2681C247.241 19.6573 247.868 18.8316 248.311 17.7911C248.761 16.7507 248.986 15.5927 248.986 14.3173C248.986 13.0419 248.761 11.8873 248.311 10.8536C247.862 9.8131 247.234 8.98744 246.428 8.37658C245.623 7.75901 244.68 7.45023 243.599 7.45023C242.518 7.45023 241.575 7.75901 240.77 8.37658C239.964 8.98744 239.336 9.8131 238.887 10.8536C238.437 11.8873 238.212 13.0419 238.212 14.3173C238.212 15.5927 238.434 16.7507 238.877 17.7911C239.326 18.8316 239.954 19.6573 240.759 20.2681C241.572 20.879 242.518 21.1844 243.599 21.1844Z" fill="black"/>
</svg>
